<?xml version="1.0" standalone="no"?>
<!DOCTYPE svg PUBLIC "-//W3C//DTD SVG 20010904//EN"
 "http://www.w3.org/TR/2001/REC-SVG-20010904/DTD/svg10.dtd">
<svg version="1.0" xmlns="http://www.w3.org/2000/svg"
 width="665.000000pt" height="375.000000pt" viewBox="0 0 665.000000 375.000000"
 preserveAspectRatio="xMidYMid meet">

<g transform="translate(0.000000,375.000000) scale(0.100000,-0.100000)"
fill="#000000" stroke="none">
<path d="M1533 3503 c15 -2 39 -2 55 0 15 2 2 4 -28 4 -30 0 -43 -2 -27 -4z"/>
<path d="M1570 3491 l-55 -6 70 -7 c39 -4 88 -13 110 -20 l40 -13 3 -85 c2
-47 -2 -102 -8 -122 l-11 -38 -70 0 c-45 0 -78 -5 -93 -15 -26 -17 -24 -23
-70 165 -24 97 -39 131 -50 119 -8 -7 26 -129 34 -124 4 2 5 -8 3 -23 -3 -16
-1 -22 4 -15 4 6 9 -24 10 -69 2 -70 0 -84 -21 -111 -13 -18 -27 -45 -30 -62
-4 -16 -12 -33 -17 -36 -6 -3 -16 -23 -23 -44 l-13 -38 -18 52 c-19 58 -41 58
-25 1 14 -47 13 -76 -4 -113 -29 -65 -33 -96 -30 -196 4 -92 25 -231 41 -271
3 -8 7 -17 8 -20 9 -36 36 -101 70 -170 23 -47 40 -90 38 -96 -2 -6 17 -27 42
-48 53 -44 165 -189 165 -214 1 -16 1 -16 13 0 12 15 14 15 25 0 10 -15 11
-15 5 3 -6 17 -5 18 9 7 18 -14 137 -75 153 -77 6 -1 17 -3 27 -3 9 -1 33 -20
54 -42 20 -21 42 -36 47 -33 5 3 7 0 5 -8 -7 -20 11 -51 24 -43 7 5 9 2 6 -8
-4 -8 0 -15 7 -15 10 0 11 5 4 19 -6 10 -15 15 -21 12 -7 -5 -9 -2 -5 8 3 9
-6 32 -19 52 -27 39 -24 42 33 37 12 -1 24 3 28 9 3 5 17 7 29 4 13 -3 40 2
61 10 20 9 42 13 48 9 6 -3 7 -1 3 5 -30 49 91 -63 142 -132 12 -16 22 -24 22
-18 0 6 -11 24 -25 40 -14 17 -24 34 -23 39 2 4 0 8 -3 8 -14 0 -48 38 -43 47
3 5 -1 17 -10 27 -22 25 -17 42 19 65 17 10 33 24 38 32 4 7 15 10 24 7 12 -5
14 -3 8 8 -8 12 -6 12 8 1 15 -12 16 -11 13 15 -2 15 -7 40 -11 54 -10 40 19
45 81 13 29 -15 55 -33 58 -40 8 -21 -22 -123 -57 -196 -18 -36 -28 -64 -23
-61 5 3 7 0 4 -8 -3 -8 -10 -14 -16 -14 -6 0 -17 -7 -24 -15 -11 -12 -11 -12
5 -1 24 19 21 2 -5 -28 l-23 -26 28 25 c39 34 92 116 110 171 22 66 57 287 57
364 0 86 -43 301 -87 436 -35 107 -118 267 -220 422 -42 64 -246 275 -268 278
-5 1 -16 10 -23 20 -18 26 -152 99 -168 92 -8 -3 -14 -12 -14 -20 0 -8 4 -11
10 -8 21 13 194 -97 244 -155 l26 -31 -24 -47 c-13 -26 -35 -57 -48 -69 l-24
-23 -45 28 c-24 16 -50 27 -57 24 -6 -2 -12 1 -12 7 0 6 -7 8 -15 5 -8 -4 -15
-1 -15 5 0 6 -12 16 -26 21 -25 10 -26 13 -20 60 10 75 -4 210 -21 210 -8 0
-12 4 -9 9 4 5 -4 7 -16 4 -19 -4 -20 -3 -8 6 12 9 9 10 -15 5 -24 -4 -27 -3
-15 6 12 9 7 10 -20 5 -26 -5 -31 -4 -20 4 17 12 15 12 -80 2z m197 -203 c-3
-8 -6 -5 -6 6 -1 11 2 17 5 13 3 -3 4 -12 1 -19z m-270 -40 c-3 -7 -5 -2 -5
12 0 14 2 19 5 13 2 -7 2 -19 0 -25z m588 -17 c3 -5 2 -12 -3 -15 -5 -3 -9 1
-9 9 0 17 3 19 12 6z m161 -222 c35 -53 64 -101 64 -106 0 -6 -17 -22 -37 -36
-36 -26 -38 -26 -45 -7 -7 18 -19 25 -40 21 -5 0 -8 6 -8 14 0 8 -4 15 -10 15
-5 0 -10 4 -10 9 0 15 -60 101 -71 101 -5 0 -9 7 -9 15 0 8 -9 24 -21 36 l-20
20 26 57 27 57 45 -50 c24 -27 73 -93 109 -146z m-195 144 c-12 -20 -14 -14
-5 12 4 9 9 14 11 11 3 -2 0 -13 -6 -23z m297 -310 c48 -76 148 -352 138 -380
-3 -7 1 -13 9 -13 8 0 15 -7 15 -15 0 -10 -9 -15 -27 -14 -25 0 -26 1 -8 9 16
7 12 9 -20 9 -30 1 -36 4 -25 11 12 8 10 10 -10 10 -22 0 -67 19 -46 20 5 0 3
6 -3 14 -6 7 -16 39 -22 71 -6 32 -23 86 -39 119 -42 89 -45 108 -21 130 28
25 27 40 -1 25 -23 -11 -23 -11 1 15 14 14 27 26 30 26 3 -1 17 -17 29 -37z
m-494 -475 c-6 -9 -64 -21 -71 -14 -6 6 14 26 42 42 16 9 21 8 26 -5 4 -9 5
-19 3 -23z m639 27 c26 -25 44 -215 28 -299 -9 -46 -8 -62 1 -67 7 -5 10 -10
8 -12 -3 -3 -27 9 -55 25 -27 17 -41 27 -30 24 16 -5 15 -2 -7 16 -25 22 -26
25 -16 78 15 88 17 153 6 188 -5 18 -7 39 -4 47 7 19 50 19 69 0z m-663 -90
c-7 -8 -17 -12 -22 -9 -6 4 -5 10 3 15 22 14 33 10 19 -6z m431 -492 c13 -16
12 -17 -3 -4 -10 7 -18 15 -18 17 0 8 8 3 21 -13z m198 -47 c-29 -49 -36 -46
-8 4 12 22 24 38 26 36 2 -2 -6 -20 -18 -40z"/>
<path d="M1314 3460 c-67 -38 -113 -93 -168 -199 -87 -168 -98 -403 -31 -647
14 -49 25 -104 25 -123 0 -51 -66 -155 -162 -256 -91 -97 -268 -235 -300 -235
-51 0 -208 -121 -241 -187 -19 -36 -37 -123 -37 -175 0 -61 59 -177 116 -227
69 -60 124 -75 258 -67 205 11 260 18 274 35 12 15 13 15 8 -1 -5 -17 22 -48
42 -48 7 0 12 -7 12 -15 0 -9 12 -27 26 -40 24 -22 25 -28 18 -81 l-7 -57 -66
7 c-36 3 -84 9 -106 12 -31 4 -37 3 -25 -6 15 -11 -33 -9 -155 6 -31 4 -36 3
-23 -6 24 -15 4 -58 -31 -67 -39 -9 -43 -13 -30 -29 9 -11 9 -18 1 -26 -8 -8
-8 -17 -1 -30 9 -17 5 -18 -59 -18 -51 0 -73 -4 -83 -16 -11 -14 -10 -18 9
-33 48 -36 52 -58 52 -300 0 -124 -4 -243 -9 -263 -6 -24 -28 -59 -60 -94 -29
-31 -51 -64 -49 -73 3 -14 62 -16 628 -19 344 -1 635 0 648 3 30 7 28 28 -8
58 -16 14 -30 30 -30 35 0 5 -11 19 -25 32 -22 21 -25 32 -25 92 0 48 3 67 11
62 17 -10 29 16 29 69 0 44 1 47 28 48 20 0 14 5 -25 16 l-53 16 0 124 c0 131
5 150 49 189 25 24 26 24 7 39 -14 11 -46 15 -110 16 l-91 0 53 24 c32 15 52
30 52 41 0 11 -5 14 -17 10 -9 -4 -42 -9 -72 -13 -53 -5 -57 -4 -58 16 -2 23
40 51 77 51 11 0 20 5 20 10 0 7 -20 9 -52 6 l-53 -5 44 9 c24 5 45 11 47 12
1 2 -86 2 -195 0 l-197 -3 -2 60 c-2 48 1 63 13 67 12 5 13 9 4 20 -9 11 -7
14 10 14 23 0 28 27 11 58 -5 9 -16 34 -24 55 -25 62 -66 67 -357 45 -156 -11
-157 -11 -205 13 -49 24 -96 79 -93 108 1 9 -2 24 -6 35 -4 10 -4 21 1 25 5 3
16 26 24 50 19 57 44 74 165 117 214 76 444 119 602 113 l93 -4 100 -102 c213
-216 390 -315 562 -312 l73 2 -86 7 c-205 19 -429 168 -608 406 -161 215 -255
404 -323 649 -34 122 -40 158 -45 280 -8 202 6 297 61 410 54 108 101 166 170
205 28 17 47 30 41 30 -5 0 -33 -13 -61 -30z m-599 -1540 c-3 -5 -12 -10 -18
-10 -7 0 -6 4 3 10 19 12 23 12 15 0z m-85 -30 c0 -11 -4 -20 -9 -20 -14 0
-23 18 -16 30 10 17 25 11 25 -10z m45 10 c-3 -5 -12 -10 -18 -10 -7 0 -6 4 3
10 19 12 23 12 15 0z m-101 -51 c-13 -14 -21 -16 -28 -9 -8 8 -4 17 14 32 30
24 41 7 14 -23z m-67 -50 c-35 -27 -69 -150 -46 -164 17 -11 9 -35 -12 -35
-21 0 -21 4 -17 68 6 75 27 126 66 159 22 19 28 20 30 8 2 -9 -8 -25 -21 -36z
m-23 -242 c11 -46 64 -105 116 -129 27 -12 50 -27 50 -31 0 -20 -105 30 -136
65 -48 52 -76 118 -51 118 8 0 17 -10 21 -23z m604 -123 c-4 -3 -12 -7 -20 -8
-7 -2 -24 -6 -38 -9 -14 -3 -53 -8 -87 -10 -53 -4 -60 -3 -49 8 8 8 42 16 77
18 35 2 77 4 93 5 16 1 27 -1 24 -4z m64 -62 c-5 -14 -7 -12 -10 8 -6 42 -17
42 -17 1 0 -22 4 -37 9 -34 5 4 6 1 2 -5 -8 -14 -36 -4 -33 11 1 7 -4 11 -11
9 -8 -1 -11 2 -6 9 3 6 0 16 -7 21 -10 7 -8 8 9 5 17 -4 22 -2 18 8 -8 22 18
25 36 4 10 -12 14 -27 10 -37z m-282 39 c0 -8 -85 -20 -150 -23 -69 -2 -67 20
3 25 108 7 147 7 147 -2z m127 -324 c3 -3 3 -13 0 -22 -5 -11 -21 -15 -61 -15
-68 0 -86 7 -86 32 0 19 5 20 70 16 39 -3 73 -8 77 -11z m-69 -54 c-10 -2 -26
-2 -35 0 -10 3 -2 5 17 5 19 0 27 -2 18 -5z m-11 -350 c-2 -16 -4 -5 -4 22 0
28 2 40 4 28 2 -13 2 -35 0 -50z"/>
<path d="M1217 3283 c6 -16 5 -17 -11 -3 -12 9 -6 -6 14 -38 17 -29 36 -49 42
-46 6 4 8 1 6 -7 -4 -12 17 -69 25 -69 2 0 3 9 3 19 0 11 -4 18 -8 15 -4 -2
-6 4 -5 14 0 10 -14 43 -32 75 -32 57 -46 73 -34 40z m43 -81 c0 -4 -9 7 -20
23 -11 17 -20 35 -20 40 0 6 9 -5 20 -23 11 -18 20 -36 20 -40z"/>
<path d="M1312 3076 c15 -30 16 -30 14 -3 0 13 -6 24 -13 24 -9 0 -9 -6 -1
-21z"/>
<path d="M1140 2883 c13 -10 40 -31 60 -48 l35 -29 -27 30 c-15 16 -42 37 -60
47 -32 17 -32 17 -8 0z"/>
<path d="M1266 2768 c15 -20 30 -35 33 -32 3 2 -10 19 -28 37 l-34 32 29 -37z"/>
<path d="M3075 2128 c-38 -20 -55 -51 -55 -100 0 -62 30 -96 129 -148 99 -52
125 -93 105 -167 -8 -30 -63 -63 -103 -63 -53 0 -90 26 -117 83 l-24 52 0 -64
c0 -53 2 -62 16 -57 8 3 31 -1 51 -9 101 -42 216 10 224 100 7 92 -16 124
-131 184 -43 23 -86 52 -95 64 -39 55 2 127 72 127 60 0 97 -31 120 -100 11
-33 11 -31 12 40 0 50 -2 70 -9 60 -7 -12 -14 -12 -43 -2 -41 15 -125 15 -152
0z"/>
<path d="M3382 2124 c31 -16 35 -27 43 -119 6 -74 -7 -310 -18 -335 -6 -13 2
-14 49 -12 52 4 54 5 39 22 -13 14 -15 37 -13 116 l3 99 138 3 137 3 0 -98 c0
-73 -4 -104 -16 -121 -15 -22 -15 -22 40 -22 55 0 66 6 45 27 -7 7 -9 79 -7
212 3 199 3 203 27 222 l23 19 -77 0 -76 0 20 -26 c17 -22 21 -41 21 -109 l0
-82 -131 -7 c-72 -3 -135 -4 -140 0 -12 7 -11 120 1 165 6 20 19 40 30 45 14
6 -8 9 -72 10 -85 2 -90 1 -66 -12z"/>
<path d="M3970 2133 c37 -13 40 -33 40 -237 0 -172 -2 -202 -17 -218 -15 -17
-14 -18 41 -18 53 0 56 1 46 19 -5 11 -10 63 -10 115 l0 96 34 0 c41 0 59 -20
118 -128 42 -79 82 -112 133 -112 l30 1 -26 14 c-15 8 -43 47 -70 96 -24 46
-55 96 -67 111 l-24 28 35 15 c100 42 102 161 4 206 -34 15 -65 18 -162 18
-66 0 -113 -3 -105 -6z m201 -13 c57 -16 86 -78 68 -144 -12 -42 -54 -66 -118
-66 l-51 0 0 104 c0 91 2 105 18 109 29 8 46 7 83 -3z"/>
<path d="M4561 1987 c-87 -205 -130 -299 -146 -317 -12 -13 -8 -15 32 -11 32
2 42 6 34 14 -18 18 -13 54 18 122 l30 65 76 0 76 0 25 -57 c36 -80 40 -110
20 -132 -16 -18 -15 -19 48 -17 37 0 66 3 66 5 0 3 -7 12 -15 20 -13 16 -148
342 -174 424 -7 20 -16 37 -19 37 -4 0 -36 -69 -71 -153z m82 -19 c15 -40 27
-79 27 -85 0 -9 -20 -13 -65 -13 -38 0 -65 4 -65 10 0 15 63 160 70 160 3 0
18 -33 33 -72z"/>
<path d="M4769 2113 c28 -27 60 -94 166 -351 24 -57 47 -103 51 -103 5 -1 19
25 32 58 107 271 151 362 192 397 l32 26 -68 0 c-64 0 -66 -1 -51 -18 10 -10
17 -27 17 -38 0 -30 -124 -324 -135 -321 -5 2 -24 37 -42 78 -115 271 -115
269 -65 288 21 7 7 10 -66 10 l-92 1 29 -27z"/>
<path d="M5401 2110 c-36 -104 -159 -381 -182 -412 l-28 -36 47 -4 48 -3 -14
25 c-13 23 -12 31 13 95 16 39 33 73 39 77 6 4 42 8 79 8 l68 0 24 -52 c31
-67 41 -116 26 -131 -19 -19 -13 -22 55 -24 l65 -3 -24 33 c-20 26 -156 352
-181 435 -10 30 -22 28 -35 -8z m33 -145 c38 -95 38 -95 -40 -95 -59 0 -65 2
-60 18 36 98 60 151 66 147 4 -3 20 -34 34 -70z"/>
<path d="M5695 2126 c17 -7 36 -25 43 -40 20 -46 11 -364 -13 -418 -6 -16 -1
-18 34 -18 44 0 48 5 26 34 -12 16 -15 56 -15 189 0 116 3 166 11 162 11 -8
162 -197 254 -320 l60 -80 5 220 c3 121 9 228 14 238 4 10 19 23 32 30 20 10
11 12 -60 12 -72 0 -79 -2 -56 -11 17 -7 32 -25 39 -44 13 -39 15 -313 2 -308
-5 2 -42 46 -82 98 -40 52 -104 134 -142 183 l-69 87 -56 0 c-56 -1 -56 -1
-27 -14z"/>
<path d="M2070 1575 c0 -5 5 -17 10 -25 5 -8 10 -10 10 -5 0 6 -5 17 -10 25
-5 8 -10 11 -10 5z"/>
<path d="M1471 1179 c13 -8 88 -14 78 -5 -2 2 -24 6 -48 9 -29 4 -40 2 -30 -4z"/>
<path d="M1073 1163 c15 -2 37 -2 50 0 12 2 0 4 -28 4 -27 0 -38 -2 -22 -4z"/>
<path d="M1253 1163 c9 -2 25 -2 35 0 9 3 1 5 -18 5 -19 0 -27 -2 -17 -5z"/>
<path d="M1775 978 c-4 -9 3 -51 15 -93 20 -70 21 -88 13 -228 -9 -175 -5
-187 66 -187 22 0 43 -4 46 -10 10 -16 65 -12 65 5 0 28 -5 30 -80 30 l-75 0
-1 135 c0 74 -4 172 -8 218 -8 91 -30 159 -41 130z"/>
</g>
</svg>
